# xmcd CD database file generated by LOLA_Freedb v0.9beta0
# 
# Track frame offsets:
#      183
#      16888
#      29330
#      42153
#      58535
#      71015
#      82778
#      96290
#      110180
#      123578
#      131928
#      144290
#      155260
#      173703
#      183778
#      193755
# 
# Disc length: 2743 seconds
# 
# Revision: 1 
# Processed by: cddbd v1.5.2PL0 Copyright (c) Steve Scherf et al.
# Submitted via: LOLA_Freedb v0.9beta0
# 
DISCID=d70ab510
DTITLE=Johnny Cash - San Quentin and Other Hits
DYEAR=1992
DGENRE=DISCO-CD-Koffer
TTITLE0=Johnny Cash - Ghost Riders In The Sky
TTITLE1=Johnny Cash with June Carter - Jackson (with June Carter)-live-
TTITLE2=Johnny Cash - San Quentin-live-
TTITLE3=Johnny Cash - A Boy Named Sue-live-
TTITLE4=Johnny Cash - The One On The Right Is On The Left
TTITLE5=Johnny Cash - Ring Of Fire
TTITLE6=Johnny Cash - It Ain't Me Babe
TTITLE7=Johnny Cash - Orange Blossom Special
TTITLE8=Don't Take Your Guns To Town
TTITLE9=The Rebel-Johnny Yuma
TTITLE10=Understand Your Man
TTITLE11=I Love You Because
TTITLE12=The Ballad Of Ira Hayes
TTITLE13=Straight A's In Love
TTITLE14=Goodbye Little Darlin', Goodbye
TTITLE15=You're The Nearest Thing To Heaven
EXTD=Dynamic -1992
EXTT0=
EXTT1=
EXTT2=
EXTT3=
EXTT4=
EXTT5=
EXTT6=
EXTT7=
EXTT8=
EXTT9=
EXTT10=
EXTT11=
EXTT12=
EXTT13=
EXTT14=
EXTT15=
PLAYORDER=
